<?xml version="1.0" encoding="UTF-8"?>
<svg id="Layer_1" data-name="Layer 1" xmlns="http://www.w3.org/2000/svg" viewBox="0 0 500 500">
  <defs>
    <style>
      .cls-1 {
        fill: #f9fcfc;
      }

      .cls-1, .cls-2, .cls-3, .cls-4, .cls-5 {
        stroke-width: 0px;
      }

      .cls-2 {
        fill: #9fd4d9;
      }

      .cls-3 {
        fill: #9ed3d9;
      }

      .cls-4 {
        fill: #9fd3d9;
      }

      .cls-5 {
        fill: #9dd2d8;
      }
    </style>
  </defs>
  <path class="cls-5" d="M249.65,0c139.5-.01,250.91,111.52,250.35,250.62-.55,136.97-112.99,249.17-249.93,249.38C111.92,500.21-2.11,385.34.03,248.1,2.21,108.05,110.9.01,249.65,0ZM163.96,245.04c-26.81,47.28-53.06,93.59-81.36,143.51h331.29c-28.5-49.92-54.06-94.69-79.71-139.61,26.52-47.22,52.56-93.58,80.32-143.02H84.08c28.28,49.25,53.78,93.66,79.88,139.12Z"/>
  <path class="cls-1" d="M163.96,245.04c-26.1-45.46-51.6-89.87-79.88-139.12h330.42c-27.77,49.44-53.81,95.81-80.32,143.02,25.64,44.92,51.21,89.69,79.71,139.61H82.6c28.3-49.92,54.56-96.23,81.36-143.51ZM310.63,244.59c-20.6-35.94-40.69-70.99-62.67-109.32-21.8,40.88-41.29,77.4-60.79,113.97,20.75,36.13,40.8,71.05,62.69,109.18,21.31-39.91,40.78-76.39,60.77-113.82ZM323.64,232.47c22.1-38.96,42.13-74.27,63.95-112.73h-128.43c21.41,37.43,41.89,73.23,64.48,112.73ZM174.31,261.43c-21.57,38.13-41.74,73.79-63.9,112.97h128.3c-21.3-37.37-42.18-73.99-64.39-112.97ZM174.36,228.2c21.81-37.98,41.79-72.77,62.55-108.92h-125.54c21.32,36.86,41.22,71.28,62.99,108.92ZM386.22,374.39c-22.01-38.08-41.56-71.88-62.67-108.39-21.54,37.62-41.38,72.27-62.07,108.39h124.73Z"/>
  <path class="cls-3" d="M310.63,244.59c-19.98,37.43-39.46,73.91-60.77,113.82-21.89-38.13-41.95-73.05-62.69-109.18,19.5-36.56,38.99-73.09,60.79-113.97,21.97,38.33,42.07,73.38,62.67,109.32Z"/>
  <path class="cls-3" d="M323.64,232.47c-22.59-39.5-43.07-75.3-64.48-112.73h128.43c-21.82,38.46-41.85,73.78-63.95,112.73Z"/>
  <path class="cls-4" d="M174.31,261.43c22.22,38.98,43.09,75.6,64.39,112.97H110.4c22.16-39.18,42.33-74.83,63.9-112.97Z"/>
  <path class="cls-4" d="M174.36,228.2c-21.77-37.65-41.67-72.06-62.99-108.92h125.54c-20.76,36.15-40.74,70.94-62.55,108.92Z"/>
  <path class="cls-2" d="M386.22,374.39h-124.73c20.69-36.13,40.52-70.77,62.07-108.39,21.11,36.51,40.65,70.32,62.67,108.39Z"/>
</svg>