<?xml version="1.0" encoding="UTF-8"?>
<svg id="Layer_1" data-name="Layer 1" xmlns="http://www.w3.org/2000/svg" viewBox="0 0 500 137">
  <defs>
    <style>
      .cls-1 {
        fill: #9dd3d9;
      }

      .cls-1, .cls-2, .cls-3, .cls-4, .cls-5 {
        stroke-width: 0px;
      }

      .cls-2 {
        fill: #8bc1d6;
      }

      .cls-3 {
        fill: #538acd;
      }

      .cls-4 {
        fill: #78afd3;
      }

      .cls-5 {
        fill: #669cd0;
      }
    </style>
  </defs>
  <g id="title">
    <path id="path174394" class="cls-3" d="M42.75,97.88v-60.48h-13.54v-17.86h49.54v17.86h-13.25v60.48h13.25v17.86H29.22v-17.86h13.54Z"/>
    <path id="path174396" class="cls-5" d="M136.09,42.29c1.92,0,3.94.24,6.05.72,2.11.48,4.13,1.25,6.05,2.3,1.92.96,3.7,2.16,5.33,3.6,1.73,1.44,3.17,3.17,4.32,5.18V19.54h21.89v68.26c0,3.65.14,7.92.43,12.82.29,4.8.96,9.84,2.02,15.12h-20.88l-2.88-9.65c-3.07,4.13-6.58,7.06-10.51,8.78-3.94,1.73-7.87,2.59-11.81,2.59-4.61,0-8.83-.86-12.67-2.59-3.84-1.82-7.2-4.37-10.08-7.63-2.78-3.36-4.94-7.34-6.48-11.95-1.54-4.7-2.3-9.98-2.3-15.84,0-5.86.77-11.09,2.3-15.7s3.7-8.5,6.48-11.66c2.88-3.17,6.24-5.57,10.08-7.2,3.84-1.73,8.06-2.59,12.67-2.59h0ZM143.15,100.47c2.11,0,4.13-.38,6.05-1.15,1.92-.77,3.6-1.97,5.04-3.6s2.54-3.74,3.31-6.34c.86-2.59,1.3-5.76,1.3-9.5,0-3.65-.43-6.77-1.3-9.36-.77-2.59-1.87-4.7-3.31-6.34-1.44-1.73-3.12-2.98-5.04-3.74-1.92-.77-3.94-1.15-6.05-1.15-4.32,0-8.06,1.73-11.23,5.18-3.07,3.36-4.61,8.35-4.61,14.98s1.54,11.81,4.61,15.55c3.17,3.65,6.91,5.47,11.23,5.47Z"/>
    <path id="path174398" class="cls-4" d="M204.34,79.59c0-5.66,1.01-10.8,3.02-15.41s4.75-8.54,8.21-11.81c3.55-3.26,7.63-5.76,12.24-7.49,4.7-1.73,9.65-2.59,14.83-2.59,5.86,0,11.14,1.1,15.84,3.31,4.7,2.11,8.64,5.09,11.81,8.93,3.17,3.74,5.52,8.26,7.06,13.54,1.63,5.28,2.26,11.09,1.87,17.42h-52.85c.19,2.5.77,4.7,1.73,6.62,1.06,1.82,2.3,3.36,3.74,4.61,1.54,1.25,3.26,2.21,5.18,2.88,1.92.58,3.89.86,5.9.86,3.36,0,6.24-.48,8.64-1.44,2.5-.96,4.42-2.26,5.76-3.89l17.42,6.34c-3.74,5.47-8.45,9.5-14.11,12.1-5.57,2.59-11.28,3.89-17.14,3.89s-11.04-.86-15.84-2.59c-4.8-1.73-8.93-4.22-12.38-7.49-3.46-3.26-6.14-7.25-8.06-11.95-1.92-4.7-2.88-9.98-2.88-15.84h0ZM226.37,72.53h32.54c-.19-4.61-1.78-8.06-4.75-10.37-2.98-2.4-6.62-3.6-10.94-3.6s-7.82,1.1-11.09,3.31c-3.17,2.21-5.09,5.76-5.76,10.66h0Z"/>
    <path id="path174400" class="cls-2" d="M303.65,115.73V44.31h19.15l2.74,9.5c.77-1.34,1.82-2.69,3.17-4.03,1.44-1.34,3.07-2.54,4.9-3.6,1.92-1.15,4.03-2.06,6.34-2.74,2.4-.77,4.94-1.15,7.63-1.15,4.61,0,8.45.67,11.52,2.02,3.07,1.25,5.52,3.17,7.34,5.76,1.92,2.5,3.26,5.62,4.03,9.36s1.15,8.02,1.15,12.82v43.49h-21.89v-38.02c0-2.5-.1-4.85-.29-7.06-.1-2.3-.53-4.27-1.3-5.9-.67-1.73-1.78-3.07-3.31-4.03-1.44-.96-3.46-1.44-6.05-1.44-4.61,0-7.97,1.68-10.08,5.04-2.11,3.26-3.17,8.16-3.17,14.69v36.72h-21.89Z"/>
    <path id="path174402" class="cls-1" d="M395.18,79.73c0-6.43,1.01-12,3.02-16.7,2.11-4.7,4.9-8.59,8.35-11.66,3.55-3.07,7.58-5.33,12.1-6.77,4.61-1.54,9.41-2.3,14.4-2.3s9.6.77,14.11,2.3c4.61,1.44,8.64,3.7,12.1,6.77,3.46,3.07,6.24,6.96,8.35,11.66,2.11,4.7,3.17,10.27,3.17,16.7s-1.06,12.05-3.17,16.85c-2.11,4.7-4.9,8.59-8.35,11.66-3.46,3.07-7.49,5.38-12.1,6.91-4.51,1.54-9.22,2.3-14.11,2.3s-9.79-.77-14.4-2.3c-4.51-1.54-8.54-3.84-12.1-6.91-3.46-3.07-6.24-6.96-8.35-11.66-2.02-4.8-3.02-10.42-3.02-16.85ZM433.06,100.47c4.42,0,8.06-1.58,10.94-4.75,2.98-3.17,4.46-8.5,4.46-15.98,0-3.74-.43-6.91-1.3-9.5-.77-2.69-1.87-4.8-3.31-6.34-1.34-1.63-2.98-2.78-4.9-3.46-1.82-.77-3.79-1.15-5.9-1.15s-4.13.38-6.05,1.15c-1.92.67-3.6,1.82-5.04,3.46-1.34,1.54-2.45,3.65-3.31,6.34-.77,2.59-1.15,5.76-1.15,9.5,0,7.49,1.44,12.82,4.32,15.98,2.98,3.17,6.72,4.75,11.23,4.75h0Z"/>
  </g>
</svg>